<svg width="400" height="250" viewBox="0 0 400 250" fill="none" xmlns="http://www.w3.org/2000/svg">
<rect width="400" height="250" fill="#1E1E1E"/>
<rect width="400" height="250" fill="white"/>
<path d="M119.224 100.76C119.038 101.16 118.691 101.387 118.184 101.44C117.704 101.467 117.171 101.387 116.584 101.2C116.024 100.987 115.504 100.707 115.024 100.36C114.544 99.9867 114.184 99.5867 113.944 99.16C113.704 98.7333 113.691 98.3333 113.904 97.96C113.451 98.1733 112.998 98.1067 112.544 97.76C112.091 97.4133 111.718 96.9467 111.424 96.36C111.131 95.7467 110.984 95.16 110.984 94.6C110.984 94.0133 111.198 93.6133 111.624 93.4C110.798 92.4133 110.478 91.84 110.664 91.68C110.878 91.52 111.398 91.9333 112.224 92.92C112.224 92.0933 112.371 91.5467 112.664 91.28C112.958 91.0133 113.251 91.0133 113.544 91.28C113.838 91.5467 113.984 92.0933 113.984 92.92C113.984 92.12 114.171 91.5333 114.544 91.16C114.944 90.76 115.398 90.56 115.904 90.56C116.411 90.56 116.851 90.76 117.224 91.16C117.624 91.5333 117.824 92.12 117.824 92.92C118.064 92.5467 118.398 92.3333 118.824 92.28C119.278 92.2267 119.731 92.2933 120.184 92.48C120.664 92.6667 121.091 92.9333 121.464 93.28C121.864 93.6267 122.118 94.0133 122.224 94.44C122.384 93.96 122.624 93.64 122.944 93.48C123.264 93.2933 123.584 93.2667 123.904 93.4C123.958 92.84 124.171 92.32 124.544 91.84C124.944 91.36 125.411 91.0933 125.944 91.04C125.251 90.8 124.824 90.3867 124.664 89.8C124.531 89.2133 124.651 88.6667 125.024 88.16C125.398 87.6533 126.038 87.4 126.944 87.4C126.251 87.4 125.731 87.2133 125.384 86.84C125.038 86.44 124.864 86 124.864 85.52C124.864 85.0133 125.038 84.5733 125.384 84.2C125.731 83.8 126.251 83.6 126.944 83.6C126.411 83.6 125.971 83.5467 125.624 83.44C125.278 83.3333 125.038 83.2 124.904 83.04C124.798 82.9867 124.758 82.88 124.784 82.72V82.68C124.251 82.8667 123.704 82.8133 123.144 82.52C122.584 82.2267 122.304 81.6933 122.304 80.92C122.304 81.8267 122.091 82.44 121.664 82.76C121.238 83.0533 120.811 83.0533 120.384 82.76C119.984 82.44 119.784 81.8267 119.784 80.92C119.784 81.56 119.544 82.04 119.064 82.36C118.611 82.68 118.078 82.84 117.464 82.84C116.851 82.84 116.304 82.68 115.824 82.36C115.371 82.04 115.144 81.56 115.144 80.92C114.638 81.08 114.184 81.04 113.784 80.8C113.411 80.5333 113.144 80.1733 112.984 79.72C112.851 79.24 112.851 78.7867 112.984 78.36C113.144 77.9067 113.478 77.6 113.984 77.44C113.504 77.0133 113.238 76.5867 113.184 76.16C113.158 75.7333 113.278 75.3733 113.544 75.08C113.811 74.7867 114.158 74.64 114.584 74.64C115.011 74.6133 115.464 74.8 115.944 75.2C115.944 74.5067 116.184 74 116.664 73.68C117.144 73.3333 117.691 73.16 118.304 73.16C118.944 73.16 119.504 73.3333 119.984 73.68C120.464 74 120.704 74.5067 120.704 75.2C120.704 74.6667 120.904 74.2533 121.304 73.96C121.731 73.64 122.251 73.4267 122.864 73.32C123.504 73.2133 124.131 73.2133 124.744 73.32C125.358 73.4267 125.864 73.64 126.264 73.96C126.691 74.2533 126.904 74.6667 126.904 75.2C126.904 74.56 127.051 74.08 127.344 73.76C127.664 73.44 128.024 73.28 128.424 73.28C128.824 73.28 129.171 73.44 129.464 73.76C129.784 74.08 129.944 74.56 129.944 75.2C129.944 74.48 130.091 73.9333 130.384 73.56C130.704 73.1867 131.051 73 131.424 73C131.824 73 132.171 73.1733 132.464 73.52C132.784 73.8667 132.944 74.4 132.944 75.12C132.918 74.2933 133.051 73.7333 133.344 73.44C133.664 73.1467 133.984 73.1333 134.304 73.4C134.651 73.6667 134.851 74.2267 134.904 75.08C135.518 75.08 135.971 75.32 136.264 75.8C136.584 76.28 136.744 76.84 136.744 77.48C136.744 78.12 136.584 78.68 136.264 79.16C135.971 79.64 135.518 79.88 134.904 79.88C135.891 79.88 136.544 80.0267 136.864 80.32C137.211 80.6133 137.211 80.9067 136.864 81.2C136.544 81.4933 135.891 81.64 134.904 81.64C135.598 81.64 136.118 81.88 136.464 82.36C136.838 82.84 137.024 83.4 137.024 84.04C137.024 84.6533 136.838 85.2 136.464 85.68C136.118 86.16 135.598 86.4 134.904 86.4C135.624 86.4 136.158 86.6667 136.504 87.2C136.851 87.7333 137.024 88.3467 137.024 89.04C137.024 89.7333 136.851 90.3467 136.504 90.88C136.158 91.4133 135.624 91.68 134.904 91.68C135.571 91.7867 136.038 92.04 136.304 92.44C136.598 92.84 136.704 93.28 136.624 93.76C136.544 94.2133 136.304 94.5867 135.904 94.88C135.531 95.1733 135.011 95.2533 134.344 95.12C134.691 95.44 134.851 95.84 134.824 96.32C134.824 96.7733 134.678 97.24 134.384 97.72C134.118 98.2 133.771 98.6267 133.344 99C132.918 99.3467 132.478 99.5733 132.024 99.68C131.571 99.7867 131.171 99.6933 130.824 99.4C131.038 100.013 130.971 100.56 130.624 101.04C130.304 101.493 129.851 101.813 129.264 102C128.704 102.213 128.144 102.24 127.584 102.08C127.024 101.947 126.638 101.56 126.424 100.92C126.504 101.747 126.211 102.307 125.544 102.6C124.904 102.92 124.024 102.933 122.904 102.64C121.811 102.373 120.584 101.747 119.224 100.76ZM140.79 99.04C140.497 99.04 140.244 98.8667 140.03 98.52C139.844 98.1467 139.71 97.68 139.63 97.12C139.55 96.56 139.524 96 139.55 95.44C139.604 94.88 139.71 94.4133 139.87 94.04C140.03 93.64 140.27 93.44 140.59 93.44C140.457 93.2 140.524 92.9067 140.79 92.56C141.057 92.2133 141.43 91.88 141.91 91.56C142.417 91.2133 142.937 90.92 143.47 90.68C144.03 90.44 144.524 90.2933 144.95 90.24C145.377 90.1867 145.657 90.28 145.79 90.52C145.737 90.1733 145.857 89.8667 146.15 89.6C146.47 89.3333 146.87 89.1333 147.35 89C147.83 88.8667 148.297 88.8133 148.75 88.84C149.23 88.8667 149.604 89 149.87 89.24C149.764 88.8133 149.897 88.3467 150.27 87.84C149.604 87.8133 148.99 87.7067 148.43 87.52C147.87 87.3067 147.604 87.0267 147.63 86.68C147.63 87.08 147.47 87.3733 147.15 87.56C146.83 87.7467 146.457 87.84 146.03 87.84C145.63 87.84 145.27 87.7467 144.95 87.56C144.63 87.3733 144.47 87.08 144.47 86.68C144.23 87.08 143.924 87.3067 143.55 87.36C143.177 87.4133 142.804 87.3467 142.43 87.16C142.084 86.9467 141.83 86.6667 141.67 86.32C141.51 85.9467 141.55 85.56 141.79 85.16C141.337 84.6533 141.164 84.2 141.27 83.8C141.404 83.3733 141.684 83.12 142.11 83.04C142.537 82.96 142.977 83.1733 143.43 83.68C143.11 83.0667 143.03 82.5867 143.19 82.24C143.35 81.8933 143.604 81.76 143.95 81.84C144.324 81.8933 144.67 82.24 144.99 82.88C144.884 82.4533 144.937 82.0933 145.15 81.8C145.39 81.48 145.697 81.2667 146.07 81.16C146.47 81.0533 146.844 81.0667 147.19 81.2C147.564 81.3333 147.804 81.6133 147.91 82.04C147.884 81.5067 148.057 81.1067 148.43 80.84C148.804 80.5467 149.244 80.3867 149.75 80.36C150.257 80.3333 150.71 80.44 151.11 80.68C151.51 80.92 151.724 81.3067 151.75 81.84C151.804 81.12 151.99 80.6533 152.31 80.44C152.63 80.2267 152.924 80.2533 153.19 80.52C153.457 80.7867 153.564 81.28 153.51 82C153.644 81.52 153.897 81.2133 154.27 81.08C154.644 80.92 155.03 80.9067 155.43 81.04C155.857 81.1467 156.19 81.3733 156.43 81.72C156.67 82.04 156.724 82.4267 156.59 82.88C156.884 82.5067 157.23 82.3333 157.63 82.36C158.03 82.36 158.39 82.4933 158.71 82.76C159.057 83 159.27 83.32 159.35 83.72C159.457 84.12 159.364 84.5067 159.07 84.88C159.71 84.5867 160.23 84.5867 160.63 84.88C161.03 85.1733 161.204 85.56 161.15 86.04C161.097 86.52 160.75 86.9067 160.11 87.2C160.644 87.1733 161.044 87.4133 161.31 87.92C161.604 88.4 161.764 88.96 161.79 89.6C161.844 90.24 161.75 90.8267 161.51 91.36C161.27 91.8667 160.884 92.1333 160.35 92.16C160.777 92.16 161.097 92.3333 161.31 92.68C161.524 93 161.63 93.3867 161.63 93.84C161.63 94.2667 161.524 94.6533 161.31 95C161.097 95.32 160.777 95.48 160.35 95.48C160.83 95.48 161.217 95.6667 161.51 96.04C161.804 96.3867 162.004 96.84 162.11 97.4C162.244 97.9333 162.27 98.48 162.19 99.04C162.11 99.6 161.937 100.08 161.67 100.48C161.404 100.853 161.044 101.053 160.59 101.08C160.564 101.507 160.35 101.853 159.95 102.12C159.577 102.387 159.11 102.56 158.55 102.64C157.99 102.72 157.417 102.707 156.83 102.6C156.27 102.52 155.804 102.333 155.43 102.04C155.057 101.773 154.87 101.427 154.87 101C154.87 101.667 154.724 102.12 154.43 102.36C154.137 102.6 153.844 102.6 153.55 102.36C153.257 102.147 153.11 101.693 153.11 101C152.764 101.427 152.404 101.653 152.03 101.68C151.657 101.707 151.337 101.6 151.07 101.36C150.83 101.12 150.724 100.827 150.75 100.48C150.324 100.827 149.63 101.067 148.67 101.2C147.737 101.333 146.59 101.253 145.23 100.96C143.87 100.64 142.39 100 140.79 99.04ZM151.03 97.08C150.79 96.9467 150.697 96.7067 150.75 96.36C150.804 96.0133 150.924 95.64 151.11 95.24C151.324 94.84 151.564 94.5067 151.83 94.24C151.59 94.1867 151.364 94.0667 151.15 93.88C150.964 93.6933 150.844 93.48 150.79 93.24C150.604 93.5067 150.324 93.7333 149.95 93.92C149.577 94.08 149.19 94.1733 148.79 94.2C148.417 94.2267 148.11 94.16 147.87 94C147.95 94.24 147.897 94.4533 147.71 94.64C148.084 94.7733 148.484 95.0133 148.91 95.36C149.364 95.7067 149.777 96.0533 150.15 96.4C150.524 96.7467 150.817 96.9733 151.03 97.08ZM169.913 100.32C169.7 100.507 169.393 100.507 168.993 100.32C168.593 100.133 168.153 99.84 167.673 99.44C167.22 99.04 166.806 98.6 166.433 98.12C166.06 97.64 165.793 97.2 165.633 96.8C165.473 96.3733 165.5 96.0667 165.713 95.88C165.18 95.96 164.74 95.84 164.393 95.52C164.073 95.1733 163.873 94.76 163.793 94.28C163.74 93.8 163.806 93.36 163.993 92.96C164.206 92.5333 164.58 92.28 165.113 92.2C164.553 92.1733 164.14 91.9867 163.873 91.64C163.633 91.2667 163.513 90.8667 163.513 90.44C163.54 89.9867 163.7 89.6 163.993 89.28C164.313 88.9333 164.74 88.7733 165.273 88.8C164.606 88.6133 164.193 88.3467 164.033 88C163.9 87.6267 163.98 87.3333 164.273 87.12C164.593 86.9067 165.1 86.9067 165.793 87.12C165.366 86.8267 165.113 86.5067 165.033 86.16C164.953 85.8133 164.993 85.4933 165.153 85.2C165.34 84.9067 165.606 84.72 165.953 84.64C166.326 84.56 166.726 84.6533 167.153 84.92C166.993 84.6533 167.033 84.3467 167.273 84C167.513 83.6267 167.86 83.28 168.313 82.96C168.793 82.6133 169.3 82.3333 169.833 82.12C170.366 81.9067 170.846 81.7867 171.273 81.76C171.7 81.7333 171.993 81.8667 172.153 82.16C172.126 81.76 172.3 81.44 172.673 81.2C173.073 80.96 173.54 80.8267 174.073 80.8C174.606 80.7467 175.073 80.8133 175.473 81C175.9 81.16 176.14 81.4267 176.193 81.8C176.3 81.24 176.62 80.8667 177.153 80.68C177.686 80.4933 178.26 80.4667 178.873 80.6C179.486 80.7333 179.993 81 180.393 81.4C180.82 81.7733 180.98 82.24 180.873 82.8C181.166 82.4 181.593 82.2533 182.153 82.36C182.713 82.4667 183.26 82.72 183.793 83.12C184.326 83.52 184.713 83.9867 184.953 84.52C185.22 85.0267 185.193 85.48 184.873 85.88C185.273 85.9067 185.566 86.0667 185.753 86.36C185.94 86.6533 186.02 86.9867 185.993 87.36C185.966 87.7067 185.846 88.0133 185.633 88.28C185.42 88.5467 185.113 88.6667 184.713 88.64C184.713 88.9867 184.54 89.2533 184.193 89.44C183.846 89.6 183.433 89.68 182.953 89.68C182.5 89.68 182.1 89.6 181.753 89.44C181.406 89.2533 181.233 88.9867 181.233 88.64C181.1 88.96 180.806 89.1467 180.353 89.2C179.926 89.2267 179.433 89.16 178.873 89C178.313 88.84 177.78 88.6267 177.273 88.36C176.793 88.0933 176.433 87.8 176.193 87.48C176.113 87.9067 175.846 88.28 175.393 88.6C174.94 88.8933 174.486 89.0133 174.033 88.96C174.22 89.2533 174.3 89.6133 174.273 90.04C174.246 90.4667 174.14 90.8533 173.953 91.2C173.766 91.5467 173.5 91.7467 173.153 91.8C173.74 91.8 174.153 92.0267 174.393 92.48C174.66 92.9333 174.726 93.3867 174.593 93.84C175.046 93.7867 175.486 93.88 175.913 94.12C176.34 94.3333 176.646 94.64 176.833 95.04C177.073 94.6133 177.46 94.32 177.993 94.16C178.553 93.9733 178.993 94.1067 179.313 94.56C179.313 94.1867 179.46 93.9067 179.753 93.72C180.073 93.5067 180.433 93.4 180.833 93.4C181.233 93.4 181.58 93.5067 181.873 93.72C182.166 93.9067 182.313 94.1867 182.313 94.56C182.313 94.24 182.473 94 182.793 93.84C183.14 93.6533 183.513 93.56 183.913 93.56C184.34 93.56 184.713 93.6533 185.033 93.84C185.353 94 185.513 94.24 185.513 94.56C185.833 94.64 186.02 94.8533 186.073 95.2C186.153 95.52 186.14 95.88 186.033 96.28C185.926 96.68 185.753 97.0133 185.513 97.28C185.3 97.52 185.033 97.5867 184.713 97.48C184.953 97.8267 184.926 98.24 184.633 98.72C184.34 99.1733 183.913 99.6 183.353 100C182.82 100.4 182.286 100.667 181.753 100.8C181.22 100.933 180.833 100.84 180.593 100.52C180.646 100.92 180.393 101.267 179.833 101.56C179.3 101.827 178.526 101.987 177.513 102.04C176.5 102.093 175.326 101.987 173.993 101.72C172.686 101.453 171.326 100.987 169.913 100.32ZM190.636 100.76C190.289 100.76 190.009 100.573 189.796 100.2C189.609 99.8267 189.476 99.36 189.396 98.8C189.316 98.24 189.316 97.68 189.396 97.12C189.476 96.56 189.609 96.0933 189.796 95.72C190.009 95.3467 190.289 95.16 190.636 95.16C190.129 95.16 189.743 94.9333 189.476 94.48C189.236 94.0267 189.116 93.5067 189.116 92.92C189.116 92.3333 189.236 91.8133 189.476 91.36C189.743 90.9067 190.129 90.68 190.636 90.68C190.103 90.68 189.703 90.56 189.436 90.32C189.169 90.0533 189.036 89.7467 189.036 89.4C189.036 89.0533 189.169 88.76 189.436 88.52C189.703 88.2533 190.103 88.12 190.636 88.12C190.103 88.12 189.703 87.88 189.436 87.4C189.169 86.8933 189.036 86.3067 189.036 85.64C189.036 84.9733 189.169 84.4 189.436 83.92C189.703 83.4133 190.103 83.16 190.636 83.16C190.076 83.16 189.649 83.0267 189.356 82.76C189.089 82.4667 188.956 82.1467 188.956 81.8C188.956 81.4533 189.089 81.1467 189.356 80.88C189.649 80.5867 190.076 80.44 190.636 80.44C190.236 80.44 189.903 80.2533 189.636 79.88C189.396 79.5067 189.236 79.04 189.156 78.48C189.076 77.92 189.076 77.36 189.156 76.8C189.236 76.24 189.396 75.7733 189.636 75.4C189.903 75.0267 190.236 74.84 190.636 74.84C190.529 74.2267 190.583 73.8 190.796 73.56C191.036 73.32 191.289 73.28 191.556 73.44C191.849 73.6 192.049 73.9867 192.156 74.6C192.156 74.1467 192.343 73.7867 192.716 73.52C193.116 73.2533 193.596 73.08 194.156 73C194.716 72.8933 195.276 72.8933 195.836 73C196.423 73.08 196.903 73.2533 197.276 73.52C197.676 73.7867 197.876 74.1467 197.876 74.6C198.383 74.6 198.756 74.8667 198.996 75.4C199.263 75.9067 199.396 76.5067 199.396 77.2C199.423 77.8667 199.316 78.4667 199.076 79C198.836 79.5333 198.463 79.8 197.956 79.8C198.383 79.8 198.729 80 198.996 80.4C199.263 80.8 199.436 81.2933 199.516 81.88C199.596 82.4667 199.596 83.0533 199.516 83.64C199.436 84.2267 199.263 84.72 198.996 85.12C198.729 85.52 198.383 85.72 197.956 85.72C198.463 85.72 198.836 85.8667 199.076 86.16C199.343 86.4533 199.476 86.7867 199.476 87.16C199.476 87.5333 199.343 87.8667 199.076 88.16C198.836 88.4533 198.463 88.6 197.956 88.6C198.356 88.6 198.663 88.7467 198.876 89.04C199.089 89.3067 199.196 89.6133 199.196 89.96C199.196 90.3067 199.089 90.6267 198.876 90.92C198.663 91.1867 198.356 91.32 197.956 91.32C198.463 91.32 198.836 91.6 199.076 92.16C199.343 92.6933 199.476 93.32 199.476 94.04C199.476 94.76 199.343 95.4 199.076 95.96C198.836 96.4933 198.463 96.76 197.956 96.76C198.489 96.76 198.876 96.92 199.116 97.24C199.383 97.56 199.516 97.9333 199.516 98.36C199.516 98.7867 199.383 99.16 199.116 99.48C198.876 99.8 198.489 99.96 197.956 99.96C198.303 100.44 198.396 100.853 198.236 101.2C198.103 101.547 197.849 101.72 197.476 101.72C197.129 101.72 196.783 101.48 196.436 101C196.436 101.773 196.223 102.28 195.796 102.52C195.369 102.787 194.943 102.787 194.516 102.52C194.116 102.28 193.916 101.773 193.916 101C193.916 101.427 193.743 101.747 193.396 101.96C193.076 102.173 192.703 102.267 192.276 102.24C191.876 102.24 191.503 102.12 191.156 101.88C190.836 101.613 190.663 101.24 190.636 100.76ZM208.326 104.96C207.899 104.773 207.619 104.493 207.486 104.12C207.379 103.747 207.392 103.373 207.526 103C207.659 102.627 207.886 102.32 208.206 102.08C208.526 101.867 208.886 101.813 209.286 101.92C208.726 101.707 208.406 101.44 208.326 101.12C208.272 100.8 208.406 100.56 208.726 100.4C208.406 100.213 208.272 99.9333 208.326 99.56C208.379 99.1867 208.686 98.88 209.246 98.64C208.739 98.8533 208.286 98.8667 207.886 98.68C207.512 98.4667 207.232 98.16 207.046 97.76C206.886 97.3333 206.872 96.92 207.006 96.52C207.139 96.0933 207.459 95.7733 207.966 95.56C207.512 95.7467 207.099 95.72 206.726 95.48C206.352 95.24 206.072 94.8933 205.886 94.44C205.699 93.9867 205.646 93.5467 205.726 93.12C205.806 92.6933 206.072 92.3733 206.526 92.16C206.126 92.3467 205.726 92.24 205.326 91.84C204.926 91.44 204.592 90.9333 204.326 90.32C204.059 89.7067 203.926 89.12 203.926 88.56C203.926 88 204.126 87.64 204.526 87.48C204.126 87.64 203.726 87.5467 203.326 87.2C202.952 86.8533 202.632 86.3867 202.366 85.8C202.126 85.2133 202.006 84.6533 202.006 84.12C202.032 83.5867 202.246 83.24 202.646 83.08C201.846 82.7067 201.512 82.3733 201.646 82.08C201.806 81.7867 202.286 81.8267 203.086 82.2C203.086 81.6667 203.312 81.28 203.766 81.04C204.246 80.7733 204.792 80.64 205.406 80.64C206.046 80.64 206.606 80.7733 207.086 81.04C207.566 81.28 207.806 81.6667 207.806 82.2C208.072 81.6933 208.406 81.44 208.806 81.44C209.232 81.44 209.552 81.6133 209.766 81.96C209.979 82.3067 209.939 82.7333 209.646 83.24C210.286 83 210.752 82.9733 211.046 83.16C211.366 83.32 211.459 83.5733 211.326 83.92C211.192 84.24 210.806 84.5067 210.166 84.72C210.459 84.6133 210.766 84.72 211.086 85.04C211.406 85.36 211.686 85.7867 211.926 86.32C212.192 86.8267 212.392 87.3733 212.526 87.96C212.686 88.52 212.739 89.0267 212.686 89.48C212.659 89.9067 212.499 90.1733 212.206 90.28C212.472 90.2 212.726 90.2267 212.966 90.36C213.206 90.4933 213.419 90.6933 213.606 90.96C213.926 90.6133 214.352 90.5467 214.886 90.76C214.352 90.5733 214.046 90.3067 213.966 89.96C213.912 89.6133 214.019 89.3467 214.286 89.16C214.579 88.9467 214.979 88.9333 215.486 89.12C215.166 88.9867 214.979 88.6933 214.926 88.24C214.872 87.76 214.912 87.2267 215.046 86.64C215.206 86.0267 215.419 85.44 215.686 84.88C215.979 84.32 216.299 83.88 216.646 83.56C216.992 83.24 217.326 83.1467 217.646 83.28C217.512 82.8267 217.606 82.44 217.926 82.12C218.272 81.7733 218.699 81.5333 219.206 81.4C219.739 81.2667 220.232 81.2533 220.686 81.36C221.139 81.4667 221.432 81.7467 221.566 82.2C221.566 81.6667 221.766 81.32 222.166 81.16C222.592 80.9733 223.019 80.9733 223.446 81.16C223.872 81.32 224.086 81.6667 224.086 82.2C224.459 82.28 224.686 82.56 224.766 83.04C224.872 83.4933 224.859 84 224.726 84.56C224.619 85.12 224.419 85.5867 224.126 85.96C223.832 86.3333 223.499 86.48 223.126 86.4C223.686 86.64 224.006 87.04 224.086 87.6C224.166 88.1333 224.086 88.68 223.846 89.24C223.606 89.8 223.259 90.24 222.806 90.56C222.352 90.8533 221.846 90.88 221.286 90.64C221.819 90.88 222.099 91.2 222.126 91.6C222.179 91.9733 222.046 92.2933 221.726 92.56C221.432 92.8 221.019 92.8 220.486 92.56C220.859 92.72 221.046 93.0533 221.046 93.56C221.072 94.0667 220.966 94.5867 220.726 95.12C220.512 95.6533 220.219 96.0933 219.846 96.44C219.472 96.76 219.099 96.84 218.726 96.68C219.046 96.8133 219.219 97.1067 219.246 97.56C219.272 98.0133 219.192 98.5333 219.006 99.12C218.846 99.7067 218.619 100.267 218.326 100.8C218.032 101.307 217.699 101.707 217.326 102C216.979 102.293 216.646 102.373 216.326 102.24C216.752 102.427 216.979 102.76 217.006 103.24C217.059 103.72 216.966 104.213 216.726 104.72C216.512 105.253 216.206 105.68 215.806 106C215.432 106.32 215.032 106.387 214.606 106.2C215.086 106.493 215.366 106.84 215.446 107.24C215.552 107.64 215.499 108 215.286 108.32C215.099 108.64 214.806 108.84 214.406 108.92C214.006 109.027 213.566 108.92 213.086 108.6C213.086 109.027 212.846 109.347 212.366 109.56C211.886 109.773 211.326 109.88 210.686 109.88C210.046 109.88 209.486 109.773 209.006 109.56C208.526 109.347 208.286 109.027 208.286 108.6C208.286 109.187 208.206 109.6 208.046 109.84C207.912 110.08 207.792 110.093 207.686 109.88C207.579 109.667 207.552 109.16 207.606 108.36C207.686 107.587 207.926 106.453 208.326 104.96ZM228.915 101.24C228.489 101.213 228.169 101.04 227.955 100.72C227.742 100.4 227.635 100.027 227.635 99.6C227.662 99.1733 227.782 98.8133 227.995 98.52C228.235 98.2 228.569 98.04 228.995 98.04C228.489 98.04 228.102 97.8 227.835 97.32C227.569 96.8133 227.435 96.24 227.435 95.6C227.435 94.9333 227.569 94.36 227.835 93.88C228.102 93.3733 228.489 93.12 228.995 93.12C228.515 93.12 228.155 92.8667 227.915 92.36C227.702 91.8267 227.595 91.2267 227.595 90.56C227.595 89.8933 227.702 89.3067 227.915 88.8C228.155 88.2667 228.515 88 228.995 88C228.435 88 228.009 87.84 227.715 87.52C227.449 87.2 227.315 86.84 227.315 86.44C227.315 86.0133 227.449 85.64 227.715 85.32C228.009 85 228.435 84.84 228.995 84.84C228.595 84.76 228.315 84.5733 228.155 84.28C227.995 83.9867 227.942 83.6667 227.995 83.32C228.049 82.9733 228.195 82.6933 228.435 82.48C228.675 82.24 228.995 82.1467 229.395 82.2C229.395 81.7467 229.595 81.3867 229.995 81.12C230.395 80.8533 230.902 80.68 231.515 80.6C232.129 80.4933 232.729 80.4933 233.315 80.6C233.929 80.68 234.435 80.8533 234.835 81.12C235.235 81.3867 235.435 81.7467 235.435 82.2C235.755 81.8533 236.115 81.7467 236.515 81.88C236.942 81.9867 237.289 82.2 237.555 82.52C237.822 82.0933 238.235 81.8533 238.795 81.8C239.355 81.72 239.809 81.9867 240.155 82.6C240.075 82.1467 240.209 81.7733 240.555 81.48C240.929 81.16 241.382 80.9467 241.915 80.84C242.449 80.7333 242.942 80.76 243.395 80.92C243.849 81.0533 244.115 81.3467 244.195 81.8C244.382 81.48 244.689 81.32 245.115 81.32C245.569 81.2933 246.049 81.3867 246.555 81.6C247.089 81.8133 247.582 82.08 248.035 82.4C248.489 82.72 248.822 83.0667 249.035 83.44C249.275 83.8133 249.302 84.16 249.115 84.48C249.702 84.2133 250.169 84.1867 250.515 84.4C250.862 84.6133 251.009 84.9333 250.955 85.36C250.929 85.76 250.622 86.0933 250.035 86.36C250.515 86.3067 250.902 86.4667 251.195 86.84C251.489 87.2133 251.662 87.6667 251.715 88.2C251.795 88.7067 251.742 89.1867 251.555 89.64C251.369 90.0667 251.035 90.3067 250.555 90.36C251.062 90.36 251.435 90.64 251.675 91.2C251.942 91.7333 252.075 92.36 252.075 93.08C252.075 93.8 251.942 94.44 251.675 95C251.435 95.5333 251.062 95.8 250.555 95.8C251.115 95.8 251.475 95.9867 251.635 96.36C251.822 96.7333 251.822 97.1067 251.635 97.48C251.475 97.8533 251.115 98.04 250.555 98.04C251.035 98.0933 251.369 98.2933 251.555 98.64C251.769 98.96 251.849 99.32 251.795 99.72C251.742 100.093 251.569 100.413 251.275 100.68C251.009 100.947 250.635 101.053 250.155 101C250.155 101.427 249.942 101.76 249.515 102C249.115 102.213 248.635 102.32 248.075 102.32C247.542 102.32 247.062 102.213 246.635 102C246.235 101.76 246.035 101.427 246.035 101C246.035 101.48 245.862 101.84 245.515 102.08C245.169 102.347 244.755 102.48 244.275 102.48C243.822 102.507 243.422 102.4 243.075 102.16C242.729 101.947 242.542 101.587 242.515 101.08C242.195 101.08 241.955 100.813 241.795 100.28C241.662 99.7467 241.609 99.1333 241.635 98.44C241.689 97.7467 241.809 97.1467 241.995 96.64C242.182 96.1067 242.435 95.84 242.755 95.84C242.329 95.84 241.995 95.68 241.755 95.36C241.515 95.0133 241.382 94.6133 241.355 94.16C241.329 93.7067 241.395 93.28 241.555 92.88C241.742 92.48 242.022 92.2267 242.395 92.12C242.049 92.0933 241.715 91.9067 241.395 91.56C241.075 91.1867 240.782 90.7467 240.515 90.24C240.275 89.7067 240.129 89.1867 240.075 88.68C239.755 88.9467 239.369 89.1333 238.915 89.24C238.489 89.3467 238.102 89.3467 237.755 89.24C237.889 89.56 237.929 89.92 237.875 90.32C237.822 90.72 237.702 91.0667 237.515 91.36C237.329 91.6533 237.075 91.7867 236.755 91.76C237.235 91.76 237.542 91.8933 237.675 92.16C237.835 92.4 237.835 92.6533 237.675 92.92C237.542 93.1867 237.235 93.32 236.755 93.32C237.155 93.32 237.462 93.5733 237.675 94.08C237.889 94.5867 237.995 95.1733 237.995 95.84C237.995 96.5067 237.889 97.1067 237.675 97.64C237.462 98.1467 237.155 98.4 236.755 98.4C237.155 98.64 237.369 98.96 237.395 99.36C237.422 99.7333 237.329 100.093 237.115 100.44C236.902 100.787 236.609 101.04 236.235 101.2C235.862 101.333 235.475 101.267 235.075 101C235.075 101.4 234.875 101.72 234.475 101.96C234.075 102.173 233.569 102.32 232.955 102.4C232.369 102.507 231.769 102.52 231.155 102.44C230.542 102.387 230.022 102.253 229.595 102.04C229.169 101.853 228.942 101.587 228.915 101.24ZM255.357 82.08C255.01 82.0267 254.77 81.8 254.637 81.4C254.504 80.9733 254.437 80.48 254.437 79.92C254.464 79.3333 254.557 78.7733 254.717 78.24C254.877 77.68 255.077 77.2267 255.317 76.88C255.584 76.5333 255.89 76.3867 256.237 76.44C256.077 76.0667 256.17 75.7067 256.517 75.36C256.89 74.9867 257.357 74.68 257.917 74.44C258.477 74.2 258.997 74.08 259.477 74.08C259.984 74.08 260.317 74.2533 260.477 74.6C260.69 74.2 260.957 73.96 261.277 73.88C261.624 73.8 261.957 73.84 262.277 74C262.597 74.16 262.824 74.4 262.957 74.72C263.117 75.04 263.09 75.4 262.877 75.8C263.41 76.0133 263.717 76.4133 263.797 77C263.877 77.5867 263.784 78.1867 263.517 78.8C263.277 79.4133 262.93 79.9067 262.477 80.28C262.05 80.6533 261.57 80.7333 261.037 80.52C261.357 80.7333 261.464 81.1067 261.357 81.64C261.25 82.1467 261.024 82.68 260.677 83.24C260.33 83.8 259.944 84.24 259.517 84.56C259.09 84.88 258.704 84.9333 258.357 84.72C258.357 85.2 258.184 85.5467 257.837 85.76C257.49 85.9733 257.09 86.0133 256.637 85.88C256.21 85.72 255.85 85.3333 255.557 84.72C255.29 84.1067 255.224 83.2267 255.357 82.08ZM271.622 101.08C271.462 101.8 271.222 102.24 270.902 102.4C270.582 102.56 270.315 102.493 270.102 102.2C269.915 101.907 269.902 101.413 270.062 100.72C269.875 101.12 269.569 101.347 269.142 101.4C268.715 101.427 268.289 101.347 267.862 101.16C267.462 100.947 267.142 100.667 266.902 100.32C266.689 99.9467 266.675 99.5467 266.862 99.12C266.435 98.9867 266.155 98.76 266.022 98.44C265.915 98.0933 265.915 97.76 266.022 97.44C266.155 97.0933 266.369 96.8267 266.662 96.64C266.982 96.4533 267.355 96.44 267.782 96.6C267.782 96.2 267.942 95.9067 268.262 95.72C268.582 95.5067 268.942 95.4 269.342 95.4C269.769 95.4 270.142 95.5067 270.462 95.72C270.782 95.9067 270.942 96.2 270.942 96.6C271.022 96.2 271.302 95.92 271.782 95.76C272.262 95.6 272.822 95.5467 273.462 95.6C274.102 95.6533 274.675 95.8 275.182 96.04C275.209 95.8533 275.289 95.7067 275.422 95.6C275.289 95.36 275.289 95.0667 275.422 94.72C275.129 94.96 274.702 95.08 274.142 95.08C273.582 95.08 273.009 94.9867 272.422 94.8C271.862 94.6133 271.409 94.36 271.062 94.04C270.715 93.72 270.582 93.3733 270.662 93C270.475 93.5333 270.209 93.84 269.862 93.92C269.515 94 269.235 93.9067 269.022 93.64C268.809 93.3467 268.795 92.92 268.982 92.36C268.689 92.5733 268.342 92.5733 267.942 92.36C267.569 92.12 267.182 91.7733 266.782 91.32C266.409 90.8667 266.089 90.3733 265.822 89.84C265.555 89.3067 265.395 88.8133 265.342 88.36C265.289 87.9067 265.409 87.5867 265.702 87.4C265.409 87.24 265.275 86.9467 265.302 86.52C265.355 86.0933 265.502 85.6533 265.742 85.2C266.009 84.7467 266.302 84.3867 266.622 84.12C266.969 83.8533 267.289 83.8 267.582 83.96C267.315 83.5067 267.289 83.1067 267.502 82.76C267.742 82.4133 268.062 82.2267 268.462 82.2C268.862 82.1467 269.209 82.3467 269.502 82.8C269.422 82.3733 269.542 82 269.862 81.68C270.209 81.36 270.649 81.1067 271.182 80.92C271.715 80.7333 272.262 80.64 272.822 80.64C273.409 80.6133 273.915 80.6933 274.342 80.88C274.769 81.0667 275.022 81.3733 275.102 81.8C275.155 81.2933 275.355 80.9467 275.702 80.76C276.075 80.5467 276.462 80.4667 276.862 80.52C277.289 80.5733 277.649 80.7467 277.942 81.04C278.235 81.3333 278.342 81.72 278.262 82.2C278.422 81.6933 278.649 81.4 278.942 81.32C279.262 81.2133 279.529 81.28 279.742 81.52C279.955 81.76 279.982 82.1333 279.822 82.64C280.035 82.24 280.369 82.04 280.822 82.04C281.275 82.04 281.715 82.16 282.142 82.4C282.595 82.64 282.929 82.96 283.142 83.36C283.382 83.76 283.382 84.16 283.142 84.56C283.755 84.7467 284.102 85.04 284.182 85.44C284.289 85.84 284.182 86.1867 283.862 86.48C283.569 86.7467 283.129 86.7867 282.542 86.6C282.542 87.08 282.355 87.44 281.982 87.68C281.609 87.8933 281.182 88 280.702 88C280.222 88 279.795 87.8933 279.422 87.68C279.075 87.44 278.902 87.08 278.902 86.6C278.822 86.92 278.582 87.1333 278.182 87.24C277.809 87.3467 277.369 87.3733 276.862 87.32C276.355 87.24 275.875 87.1067 275.422 86.92C275.449 87.2667 275.329 87.5867 275.062 87.88C275.649 88.0133 276.195 88.2533 276.702 88.6C277.209 88.9467 277.395 89.2933 277.262 89.64C277.342 89.2667 277.569 89.0133 277.942 88.88C278.315 88.7467 278.715 88.7333 279.142 88.84C279.569 88.92 279.929 89.0933 280.222 89.36C280.515 89.6267 280.622 89.9467 280.542 90.32C280.729 90.1067 281.022 90.0667 281.422 90.2C281.849 90.3067 282.289 90.5333 282.742 90.88C283.222 91.2 283.662 91.5733 284.062 92C284.462 92.4 284.755 92.8 284.942 93.2C285.129 93.5733 285.129 93.8667 284.942 94.08C285.502 94.0533 285.915 94.1733 286.182 94.44C286.449 94.7067 286.582 95.0133 286.582 95.36C286.609 95.7067 286.489 96.0133 286.222 96.28C285.982 96.5467 285.595 96.6933 285.062 96.72C285.382 96.96 285.502 97.2933 285.422 97.72C285.369 98.1467 285.182 98.56 284.862 98.96C284.569 99.36 284.222 99.6533 283.822 99.84C283.449 100 283.089 99.96 282.742 99.72C282.955 100.2 282.969 100.613 282.782 100.96C282.595 101.307 282.315 101.56 281.942 101.72C281.569 101.88 281.182 101.893 280.782 101.76C280.409 101.627 280.129 101.333 279.942 100.88C279.995 101.36 279.755 101.747 279.222 102.04C278.715 102.333 278.035 102.507 277.182 102.56C276.329 102.613 275.409 102.52 274.422 102.28C273.462 102.04 272.529 101.64 271.622 101.08ZM155.552 146.32C154.966 146.32 154.512 146.147 154.192 145.8C153.899 145.453 153.752 145.053 153.752 144.6C153.752 144.12 153.899 143.707 154.192 143.36C154.512 142.987 154.966 142.8 155.552 142.8C154.592 142.8 153.939 142.627 153.592 142.28C153.272 141.933 153.272 141.6 153.592 141.28C153.939 140.933 154.592 140.76 155.552 140.76C154.806 140.76 154.232 140.493 153.832 139.96C153.459 139.427 153.272 138.813 153.272 138.12C153.272 137.427 153.459 136.813 153.832 136.28C154.232 135.747 154.806 135.48 155.552 135.48C154.752 135.48 154.219 135.333 153.952 135.04C153.686 134.747 153.686 134.453 153.952 134.16C154.219 133.867 154.752 133.72 155.552 133.72C154.886 133.72 154.379 133.493 154.032 133.04C153.712 132.587 153.552 132.067 153.552 131.48C153.552 130.893 153.712 130.373 154.032 129.92C154.379 129.467 154.886 129.24 155.552 129.24C154.539 129.24 153.859 129.12 153.512 128.88C153.166 128.613 153.166 128.347 153.512 128.08C153.859 127.813 154.539 127.68 155.552 127.68C154.939 127.68 154.472 127.453 154.152 127C153.859 126.547 153.712 126.027 153.712 125.44C153.712 124.853 153.859 124.333 154.152 123.88C154.472 123.427 154.939 123.2 155.552 123.2C155.206 122.427 155.166 121.827 155.432 121.4C155.699 120.973 156.072 120.813 156.552 120.92C157.059 121 157.486 121.427 157.832 122.2C157.832 121.587 158.046 121.12 158.472 120.8C158.926 120.48 159.432 120.32 159.992 120.32C160.552 120.32 161.046 120.48 161.472 120.8C161.926 121.12 162.152 121.587 162.152 122.2C162.152 121.587 162.326 121.133 162.672 120.84C163.046 120.547 163.459 120.4 163.912 120.4C164.366 120.4 164.766 120.547 165.112 120.84C165.486 121.133 165.672 121.587 165.672 122.2C165.672 121.507 165.872 120.987 166.272 120.64C166.699 120.267 167.192 120.08 167.752 120.08C168.312 120.08 168.792 120.267 169.192 120.64C169.619 120.987 169.832 121.507 169.832 122.2C169.832 121.693 170.019 121.293 170.392 121C170.792 120.707 171.272 120.507 171.832 120.4C172.392 120.293 172.952 120.293 173.512 120.4C174.072 120.507 174.539 120.72 174.912 121.04C175.286 121.333 175.472 121.733 175.472 122.24C176.539 122.24 177.246 122.4 177.592 122.72C177.939 123.04 177.939 123.36 177.592 123.68C177.246 124 176.539 124.16 175.472 124.16C176.166 124.16 176.686 124.347 177.032 124.72C177.379 125.067 177.552 125.467 177.552 125.92C177.552 126.373 177.379 126.787 177.032 127.16C176.686 127.507 176.166 127.68 175.472 127.68C175.606 128.48 175.499 129.04 175.152 129.36C174.806 129.68 174.419 129.747 173.992 129.56C173.592 129.347 173.326 128.84 173.192 128.04C173.192 128.76 173.006 129.24 172.632 129.48C172.259 129.72 171.886 129.72 171.512 129.48C171.139 129.24 170.952 128.76 170.952 128.04C170.952 128.52 170.739 128.88 170.312 129.12C169.912 129.36 169.432 129.48 168.872 129.48C168.312 129.48 167.819 129.36 167.392 129.12C166.992 128.88 166.792 128.52 166.792 128.04C166.792 128.787 166.672 129.307 166.432 129.6C166.192 129.893 165.952 129.947 165.712 129.76C165.632 130.08 165.472 130.333 165.232 130.52C165.579 130.893 165.699 131.347 165.592 131.88C165.832 131.96 166.032 132.133 166.192 132.4C166.379 132.64 166.472 132.973 166.472 133.4C166.472 132.733 166.632 132.293 166.952 132.08C167.272 131.84 167.592 131.84 167.912 132.08C168.232 132.293 168.392 132.733 168.392 133.4C168.392 132.84 168.619 132.427 169.072 132.16C169.552 131.867 170.099 131.72 170.712 131.72C171.326 131.72 171.859 131.867 172.312 132.16C172.792 132.427 173.032 132.84 173.032 133.4C173.566 133.133 174.046 133.107 174.472 133.32C174.899 133.533 175.219 133.867 175.432 134.32C175.672 134.773 175.739 135.24 175.632 135.72C175.526 136.173 175.206 136.52 174.672 136.76C175.046 137.16 175.206 137.587 175.152 138.04C175.099 138.467 174.912 138.84 174.592 139.16C174.272 139.48 173.886 139.667 173.432 139.72C173.006 139.747 172.606 139.573 172.232 139.2C172.232 139.947 172.006 140.52 171.552 140.92C171.099 141.293 170.579 141.48 169.992 141.48C169.406 141.48 168.886 141.293 168.432 140.92C167.979 140.52 167.752 139.947 167.752 139.2C167.752 140 167.499 140.6 166.992 141C166.486 141.373 165.952 141.533 165.392 141.48C165.259 141.8 165.019 142.067 164.672 142.28C164.326 142.493 163.886 142.587 163.352 142.56C163.966 142.667 164.419 142.973 164.712 143.48C165.006 143.987 165.139 144.547 165.112 145.16C165.086 145.773 164.886 146.307 164.512 146.76C164.166 147.213 163.646 147.44 162.952 147.44C163.006 148.053 162.806 148.533 162.352 148.88C161.899 149.227 161.366 149.427 160.752 149.48C160.139 149.533 159.579 149.413 159.072 149.12C158.592 148.853 158.339 148.413 158.312 147.8C158.312 148.493 158.166 149 157.872 149.32C157.579 149.64 157.246 149.76 156.872 149.68C156.499 149.6 156.179 149.293 155.912 148.76C155.646 148.2 155.526 147.387 155.552 146.32ZM182.73 122.56C182.17 122.427 181.784 122.187 181.57 121.84C181.357 121.493 181.29 121.16 181.37 120.84C181.477 120.493 181.704 120.227 182.05 120.04C182.397 119.853 182.864 119.84 183.45 120C183.45 119.6 183.637 119.293 184.01 119.08C184.384 118.84 184.85 118.68 185.41 118.6C185.97 118.52 186.53 118.52 187.09 118.6C187.677 118.68 188.157 118.84 188.53 119.08C188.904 119.293 189.09 119.6 189.09 120C189.65 119.92 190.09 120.04 190.41 120.36C190.73 120.653 190.93 121.04 191.01 121.52C191.09 121.973 191.01 122.4 190.77 122.8C190.557 123.2 190.184 123.44 189.65 123.52C189.784 123.84 189.69 124.16 189.37 124.48C189.077 124.773 188.677 125.027 188.17 125.24C187.69 125.427 187.224 125.52 186.77 125.52C186.344 125.493 186.077 125.32 185.97 125C185.97 125.427 185.81 125.733 185.49 125.92C185.17 126.107 184.797 126.133 184.37 126C183.944 125.84 183.57 125.493 183.25 124.96C182.93 124.4 182.757 123.6 182.73 122.56ZM182.53 147.92C182.104 147.92 181.77 147.72 181.53 147.32C181.29 146.92 181.117 146.427 181.01 145.84C180.93 145.253 180.93 144.667 181.01 144.08C181.117 143.493 181.29 143.013 181.53 142.64C181.77 142.24 182.104 142.04 182.53 142.04C181.997 142.04 181.597 141.827 181.33 141.4C181.064 140.947 180.93 140.44 180.93 139.88C180.93 139.32 181.064 138.827 181.33 138.4C181.597 137.947 181.997 137.72 182.53 137.72C182.077 137.72 181.717 137.52 181.45 137.12C181.184 136.72 180.997 136.227 180.89 135.64C180.81 135.053 180.81 134.467 180.89 133.88C180.997 133.293 181.184 132.813 181.45 132.44C181.717 132.04 182.077 131.84 182.53 131.84C182.05 131.84 181.69 131.707 181.45 131.44C181.237 131.147 181.117 130.827 181.09 130.48C181.09 130.107 181.21 129.787 181.45 129.52C181.69 129.253 182.05 129.12 182.53 129.12C182.53 128.64 182.69 128.293 183.01 128.08C183.357 127.84 183.744 127.733 184.17 127.76C184.624 127.76 185.01 127.88 185.33 128.12C185.65 128.36 185.81 128.72 185.81 129.2C185.81 128.8 185.957 128.507 186.25 128.32C186.544 128.133 186.89 128.04 187.29 128.04C187.69 128.04 188.037 128.133 188.33 128.32C188.65 128.507 188.81 128.8 188.81 129.2C189.21 128.88 189.557 128.787 189.85 128.92C190.17 129.053 190.344 129.28 190.37 129.6C190.424 129.92 190.25 130.24 189.85 130.56C190.33 130.56 190.677 130.787 190.89 131.24C191.13 131.693 191.25 132.213 191.25 132.8C191.25 133.387 191.13 133.907 190.89 134.36C190.677 134.787 190.33 135 189.85 135C190.277 135 190.597 135.227 190.81 135.68C191.024 136.133 191.13 136.653 191.13 137.24C191.13 137.827 191.024 138.347 190.81 138.8C190.597 139.253 190.277 139.48 189.85 139.48C190.17 139.48 190.424 139.693 190.61 140.12C190.824 140.52 190.957 141.04 191.01 141.68C191.09 142.293 191.09 142.907 191.01 143.52C190.957 144.133 190.824 144.653 190.61 145.08C190.424 145.48 190.17 145.68 189.85 145.68C190.437 145.787 190.797 146.053 190.93 146.48C191.064 146.88 190.997 147.267 190.73 147.64C190.464 147.987 190.037 148.107 189.45 148C189.45 148.667 189.317 149.107 189.05 149.32C188.784 149.56 188.517 149.56 188.25 149.32C187.984 149.107 187.85 148.667 187.85 148C187.85 148.56 187.584 148.987 187.05 149.28C186.544 149.573 185.93 149.707 185.21 149.68C184.517 149.68 183.904 149.533 183.37 149.24C182.837 148.947 182.557 148.507 182.53 147.92ZM202.071 148.08C201.911 148.8 201.671 149.24 201.351 149.4C201.031 149.56 200.764 149.493 200.551 149.2C200.364 148.907 200.351 148.413 200.511 147.72C200.324 148.12 200.018 148.347 199.591 148.4C199.164 148.427 198.738 148.347 198.311 148.16C197.911 147.947 197.591 147.667 197.351 147.32C197.138 146.947 197.124 146.547 197.311 146.12C196.884 145.987 196.604 145.76 196.471 145.44C196.364 145.093 196.364 144.76 196.471 144.44C196.604 144.093 196.818 143.827 197.111 143.64C197.431 143.453 197.804 143.44 198.231 143.6C198.231 143.2 198.391 142.907 198.711 142.72C199.031 142.507 199.391 142.4 199.791 142.4C200.218 142.4 200.591 142.507 200.911 142.72C201.231 142.907 201.391 143.2 201.391 143.6C201.471 143.2 201.751 142.92 202.231 142.76C202.711 142.6 203.271 142.547 203.911 142.6C204.551 142.653 205.124 142.8 205.631 143.04C205.658 142.853 205.738 142.707 205.871 142.6C205.738 142.36 205.738 142.067 205.871 141.72C205.578 141.96 205.151 142.08 204.591 142.08C204.031 142.08 203.458 141.987 202.871 141.8C202.311 141.613 201.858 141.36 201.511 141.04C201.164 140.72 201.031 140.373 201.111 140C200.924 140.533 200.658 140.84 200.311 140.92C199.964 141 199.684 140.907 199.471 140.64C199.258 140.347 199.244 139.92 199.431 139.36C199.138 139.573 198.791 139.573 198.391 139.36C198.018 139.12 197.631 138.773 197.231 138.32C196.858 137.867 196.538 137.373 196.271 136.84C196.004 136.307 195.844 135.813 195.791 135.36C195.738 134.907 195.858 134.587 196.151 134.4C195.858 134.24 195.724 133.947 195.751 133.52C195.804 133.093 195.951 132.653 196.191 132.2C196.458 131.747 196.751 131.387 197.071 131.12C197.418 130.853 197.738 130.8 198.031 130.96C197.764 130.507 197.738 130.107 197.951 129.76C198.191 129.413 198.511 129.227 198.911 129.2C199.311 129.147 199.658 129.347 199.951 129.8C199.871 129.373 199.991 129 200.311 128.68C200.658 128.36 201.098 128.107 201.631 127.92C202.164 127.733 202.711 127.64 203.271 127.64C203.858 127.613 204.364 127.693 204.791 127.88C205.218 128.067 205.471 128.373 205.551 128.8C205.604 128.293 205.804 127.947 206.151 127.76C206.524 127.547 206.911 127.467 207.311 127.52C207.738 127.573 208.098 127.747 208.391 128.04C208.684 128.333 208.791 128.72 208.711 129.2C208.871 128.693 209.098 128.4 209.391 128.32C209.711 128.213 209.978 128.28 210.191 128.52C210.404 128.76 210.431 129.133 210.271 129.64C210.484 129.24 210.818 129.04 211.271 129.04C211.724 129.04 212.164 129.16 212.591 129.4C213.044 129.64 213.378 129.96 213.591 130.36C213.831 130.76 213.831 131.16 213.591 131.56C214.204 131.747 214.551 132.04 214.631 132.44C214.738 132.84 214.631 133.187 214.311 133.48C214.018 133.747 213.578 133.787 212.991 133.6C212.991 134.08 212.804 134.44 212.431 134.68C212.058 134.893 211.631 135 211.151 135C210.671 135 210.244 134.893 209.871 134.68C209.524 134.44 209.351 134.08 209.351 133.6C209.271 133.92 209.031 134.133 208.631 134.24C208.258 134.347 207.818 134.373 207.311 134.32C206.804 134.24 206.324 134.107 205.871 133.92C205.898 134.267 205.778 134.587 205.511 134.88C206.098 135.013 206.644 135.253 207.151 135.6C207.658 135.947 207.844 136.293 207.711 136.64C207.791 136.267 208.018 136.013 208.391 135.88C208.764 135.747 209.164 135.733 209.591 135.84C210.018 135.92 210.378 136.093 210.671 136.36C210.964 136.627 211.071 136.947 210.991 137.32C211.178 137.107 211.471 137.067 211.871 137.2C212.298 137.307 212.738 137.533 213.191 137.88C213.671 138.2 214.111 138.573 214.511 139C214.911 139.4 215.204 139.8 215.391 140.2C215.578 140.573 215.578 140.867 215.391 141.08C215.951 141.053 216.364 141.173 216.631 141.44C216.898 141.707 217.031 142.013 217.031 142.36C217.058 142.707 216.938 143.013 216.671 143.28C216.431 143.547 216.044 143.693 215.511 143.72C215.831 143.96 215.951 144.293 215.871 144.72C215.818 145.147 215.631 145.56 215.311 145.96C215.018 146.36 214.671 146.653 214.271 146.84C213.898 147 213.538 146.96 213.191 146.72C213.404 147.2 213.418 147.613 213.231 147.96C213.044 148.307 212.764 148.56 212.391 148.72C212.018 148.88 211.631 148.893 211.231 148.76C210.858 148.627 210.578 148.333 210.391 147.88C210.444 148.36 210.204 148.747 209.671 149.04C209.164 149.333 208.484 149.507 207.631 149.56C206.778 149.613 205.858 149.52 204.871 149.28C203.911 149.04 202.978 148.64 202.071 148.08ZM220.185 148.24C219.518 148.213 219.078 148 218.865 147.6C218.652 147.173 218.665 146.773 218.905 146.4C219.145 146 219.598 145.813 220.265 145.84C219.598 145.84 219.145 145.68 218.905 145.36C218.692 145.04 218.692 144.72 218.905 144.4C219.145 144.08 219.598 143.92 220.265 143.92C219.785 143.92 219.412 143.733 219.145 143.36C218.905 142.987 218.785 142.56 218.785 142.08C218.785 141.6 218.905 141.173 219.145 140.8C219.412 140.427 219.785 140.24 220.265 140.24C219.785 140.24 219.412 140.12 219.145 139.88C218.905 139.613 218.785 139.307 218.785 138.96C218.785 138.613 218.905 138.32 219.145 138.08C219.412 137.813 219.785 137.68 220.265 137.68C219.918 137.68 219.638 137.48 219.425 137.08C219.238 136.68 219.105 136.187 219.025 135.6C218.972 135.013 218.972 134.427 219.025 133.84C219.105 133.253 219.238 132.76 219.425 132.36C219.638 131.96 219.918 131.76 220.265 131.76C219.758 131.76 219.372 131.6 219.105 131.28C218.838 130.96 218.705 130.587 218.705 130.16C218.705 129.733 218.838 129.36 219.105 129.04C219.372 128.72 219.758 128.56 220.265 128.56C219.705 128.56 219.278 128.373 218.985 128C218.718 127.627 218.585 127.2 218.585 126.72C218.585 126.24 218.718 125.813 218.985 125.44C219.278 125.067 219.705 124.88 220.265 124.88C219.518 124.88 219.012 124.693 218.745 124.32C218.505 123.947 218.505 123.573 218.745 123.2C219.012 122.827 219.518 122.64 220.265 122.64C220.158 122.24 220.252 121.893 220.545 121.6C220.865 121.307 221.252 121.093 221.705 120.96C222.185 120.8 222.625 120.773 223.025 120.88C223.452 120.96 223.732 121.2 223.865 121.6C223.865 121.12 224.038 120.76 224.385 120.52C224.758 120.253 225.185 120.12 225.665 120.12C226.145 120.12 226.572 120.253 226.945 120.52C227.318 120.76 227.505 121.12 227.505 121.6C227.905 121.547 228.238 121.747 228.505 122.2C228.772 122.627 228.945 123.147 229.025 123.76C229.132 124.373 229.118 124.933 228.985 125.44C228.878 125.947 228.625 126.227 228.225 126.28C228.865 126.173 229.358 126.387 229.705 126.92C230.078 127.427 230.278 128 230.305 128.64C230.705 128.533 231.092 128.533 231.465 128.64C231.865 128.72 232.132 128.973 232.265 129.4C232.212 128.973 232.372 128.627 232.745 128.36C233.118 128.093 233.558 127.933 234.065 127.88C234.598 127.8 235.065 127.84 235.465 128C235.892 128.16 236.145 128.44 236.225 128.84C236.385 128.2 236.652 127.827 237.025 127.72C237.425 127.587 237.758 127.667 238.025 127.96C238.318 128.253 238.385 128.72 238.225 129.36C238.545 129.04 238.918 128.92 239.345 129C239.798 129.08 240.212 129.293 240.585 129.64C240.958 129.96 241.198 130.333 241.305 130.76C241.438 131.187 241.358 131.573 241.065 131.92C241.598 131.76 242.038 131.8 242.385 132.04C242.758 132.28 243.012 132.627 243.145 133.08C243.305 133.533 243.305 133.973 243.145 134.4C243.012 134.8 242.678 135.093 242.145 135.28C242.652 135.253 243.038 135.507 243.305 136.04C243.572 136.547 243.705 137.147 243.705 137.84C243.732 138.507 243.625 139.107 243.385 139.64C243.145 140.147 242.772 140.4 242.265 140.4C242.718 140.4 243.052 140.64 243.265 141.12C243.478 141.573 243.585 142.107 243.585 142.72C243.585 143.333 243.478 143.88 243.265 144.36C243.052 144.813 242.718 145.04 242.265 145.04C242.932 145.04 243.372 145.227 243.585 145.6C243.825 145.973 243.825 146.347 243.585 146.72C243.372 147.093 242.932 147.28 242.265 147.28C242.372 147.84 242.225 148.307 241.825 148.68C241.452 149.027 240.985 149.24 240.425 149.32C239.865 149.427 239.345 149.373 238.865 149.16C238.412 148.947 238.132 148.56 238.025 148C237.892 148.453 237.598 148.733 237.145 148.84C236.692 148.92 236.212 148.88 235.705 148.72C235.225 148.56 234.825 148.32 234.505 148C234.212 147.653 234.132 147.253 234.265 146.8C233.812 146.8 233.465 146.627 233.225 146.28C233.012 145.907 232.905 145.48 232.905 145C232.905 144.52 233.012 144.093 233.225 143.72C233.465 143.347 233.812 143.16 234.265 143.16C233.918 143.16 233.638 142.92 233.425 142.44C233.212 141.96 233.078 141.387 233.025 140.72C232.998 140.027 233.038 139.373 233.145 138.76C233.278 138.147 233.478 137.693 233.745 137.4C233.265 137.48 232.772 137.307 232.265 136.88C231.758 136.427 231.425 135.933 231.265 135.4C230.865 135.773 230.398 135.92 229.865 135.84C229.998 136.133 229.945 136.413 229.705 136.68C229.465 136.947 229.105 137.027 228.625 136.92C228.972 137.107 229.225 137.493 229.385 138.08C229.545 138.64 229.598 139.253 229.545 139.92C229.518 140.587 229.385 141.173 229.145 141.68C228.932 142.16 228.625 142.4 228.225 142.4C228.598 142.4 228.878 142.587 229.065 142.96C229.252 143.307 229.345 143.72 229.345 144.2C229.345 144.68 229.252 145.107 229.065 145.48C228.878 145.853 228.598 146.04 228.225 146.04C228.705 146.013 229.025 146.187 229.185 146.56C229.345 146.907 229.358 147.267 229.225 147.64C229.092 148.013 228.785 148.213 228.305 148.24C228.278 148.747 227.998 149.107 227.465 149.32C226.932 149.56 226.318 149.653 225.625 149.6C224.932 149.573 224.318 149.427 223.785 149.16C223.278 148.893 223.038 148.507 223.065 148C223.065 148.56 222.918 148.973 222.625 149.24C222.358 149.533 222.038 149.68 221.665 149.68C221.318 149.707 220.998 149.6 220.705 149.36C220.412 149.12 220.238 148.747 220.185 148.24ZM150.865 189.64C150.145 189.64 149.598 189.427 149.225 189C148.852 188.547 148.665 188.027 148.665 187.44C148.665 186.827 148.852 186.307 149.225 185.88C149.598 185.427 150.145 185.2 150.865 185.2C150.198 185.2 149.692 184.987 149.345 184.56C148.998 184.133 148.825 183.653 148.825 183.12C148.825 182.56 148.998 182.08 149.345 181.68C149.692 181.253 150.198 181.04 150.865 181.04C150.358 181.04 149.945 180.853 149.625 180.48C149.332 180.08 149.132 179.6 149.025 179.04C148.945 178.453 148.945 177.88 149.025 177.32C149.132 176.76 149.332 176.293 149.625 175.92C149.945 175.52 150.358 175.32 150.865 175.32C149.932 175.32 149.305 175.107 148.985 174.68C148.665 174.253 148.665 173.827 148.985 173.4C149.305 172.973 149.932 172.76 150.865 172.76C150.278 172.707 149.838 172.493 149.545 172.12C149.278 171.747 149.158 171.333 149.185 170.88C149.212 170.4 149.385 170 149.705 169.68C150.025 169.333 150.478 169.173 151.065 169.2C151.065 168.427 151.292 167.84 151.745 167.44C152.198 167.04 152.718 166.84 153.305 166.84C153.892 166.84 154.412 167.04 154.865 167.44C155.318 167.84 155.545 168.427 155.545 169.2C155.545 168.667 155.745 168.253 156.145 167.96C156.572 167.64 157.078 167.427 157.665 167.32C158.278 167.213 158.878 167.213 159.465 167.32C160.078 167.427 160.585 167.64 160.985 167.96C161.412 168.253 161.625 168.667 161.625 169.2C161.625 168.427 161.812 167.853 162.185 167.48C162.558 167.08 162.985 166.88 163.465 166.88C163.972 166.88 164.398 167.08 164.745 167.48C165.118 167.853 165.305 168.44 165.305 169.24C165.385 168.547 165.572 168.053 165.865 167.76C166.185 167.44 166.518 167.307 166.865 167.36C167.238 167.387 167.545 167.587 167.785 167.96C168.025 168.333 168.105 168.853 168.025 169.52C168.265 168.667 168.585 168.133 168.985 167.92C169.385 167.707 169.692 167.8 169.905 168.2C170.145 168.573 170.145 169.187 169.905 170.04C170.278 169.587 170.718 169.36 171.225 169.36C171.732 169.36 172.185 169.533 172.585 169.88C172.985 170.2 173.238 170.6 173.345 171.08C173.478 171.56 173.358 172.04 172.985 172.52C173.705 172.36 174.278 172.44 174.705 172.76C175.158 173.053 175.438 173.453 175.545 173.96C175.678 174.467 175.612 174.96 175.345 175.44C175.105 175.92 174.625 176.24 173.905 176.4C174.518 176.613 174.932 176.907 175.145 177.28C175.358 177.653 175.398 178.013 175.265 178.36C175.132 178.707 174.865 178.96 174.465 179.12C174.065 179.28 173.558 179.24 172.945 179C173.558 179.8 173.825 180.453 173.745 180.96C173.665 181.44 173.372 181.667 172.865 181.64C172.358 181.613 171.798 181.2 171.185 180.4C171.478 180.773 171.638 181.16 171.665 181.56C172.358 181.827 172.958 182.253 173.465 182.84C173.972 183.427 174.065 184 173.745 184.56C174.385 184.4 174.905 184.413 175.305 184.6C175.705 184.76 175.945 185.013 176.025 185.36C176.132 185.707 176.065 186.053 175.825 186.4C175.585 186.747 175.145 187.013 174.505 187.2C175.252 187.36 175.772 187.653 176.065 188.08C176.385 188.507 176.492 188.96 176.385 189.44C176.305 189.893 176.038 190.267 175.585 190.56C175.158 190.853 174.558 190.92 173.785 190.76C174.318 191.267 174.585 191.787 174.585 192.32C174.585 192.853 174.412 193.307 174.065 193.68C173.718 194.027 173.278 194.213 172.745 194.24C172.212 194.24 171.678 193.987 171.145 193.48C171.492 194.307 171.598 194.92 171.465 195.32C171.358 195.693 171.118 195.8 170.745 195.64C170.372 195.453 170.012 194.947 169.665 194.12C169.745 194.707 169.585 195.2 169.185 195.6C168.812 196 168.318 196.293 167.705 196.48C167.118 196.667 166.505 196.733 165.865 196.68C165.252 196.627 164.718 196.44 164.265 196.12C163.812 195.827 163.545 195.387 163.465 194.8C163.465 195.52 163.252 196.067 162.825 196.44C162.398 196.813 161.892 197 161.305 197C160.745 197 160.252 196.813 159.825 196.44C159.398 196.067 159.185 195.52 159.185 194.8C159.185 195.413 159.012 195.867 158.665 196.16C158.345 196.48 157.958 196.64 157.505 196.64C157.052 196.64 156.652 196.48 156.305 196.16C155.985 195.867 155.825 195.413 155.825 194.8C155.825 195.307 155.652 195.693 155.305 195.96C154.985 196.2 154.572 196.293 154.065 196.24C153.558 196.187 153.052 195.933 152.545 195.48C152.065 195.027 151.652 194.333 151.305 193.4C150.985 192.44 150.838 191.187 150.865 189.64ZM158.465 177C158.892 177 159.198 177.187 159.385 177.56C159.598 177.907 159.732 178.293 159.785 178.72C159.838 179.147 159.865 179.453 159.865 179.64C159.918 179.213 160.105 178.92 160.425 178.76C160.745 178.6 161.078 178.587 161.425 178.72C161.772 178.827 161.985 179.067 162.065 179.44C162.012 178.96 162.238 178.613 162.745 178.4C163.252 178.16 163.705 178.133 164.105 178.32C164.052 178.027 164.105 177.733 164.265 177.44C164.452 177.12 164.705 176.907 165.025 176.8C164.758 176.64 164.545 176.387 164.385 176.04C164.252 175.667 164.212 175.333 164.265 175.04C164.052 175.2 163.865 175.227 163.705 175.12C163.572 175.013 163.532 174.813 163.585 174.52C163.265 174.92 162.785 175.107 162.145 175.08C161.532 175.027 161.092 174.787 160.825 174.36C160.825 174.68 160.705 174.96 160.465 175.2C160.225 175.413 159.945 175.52 159.625 175.52C159.758 175.84 159.718 176.173 159.505 176.52C159.318 176.84 158.972 177 158.465 177ZM162.105 190.32C162.078 189.867 162.252 189.56 162.625 189.4C163.025 189.213 163.412 189.173 163.785 189.28C163.652 188.827 163.678 188.347 163.865 187.84C164.078 187.307 164.385 186.907 164.785 186.64C164.358 186.453 163.972 186.173 163.625 185.8C163.278 185.4 163.078 185 163.025 184.6C162.812 184.947 162.465 185.16 161.985 185.24C161.505 185.32 161.052 185.293 160.625 185.16C160.705 185.587 160.585 185.987 160.265 186.36C159.972 186.733 159.585 186.893 159.105 186.84C159.505 187.08 159.772 187.467 159.905 188C160.038 188.533 160.065 189.013 159.985 189.44C160.385 189.253 160.838 189.24 161.345 189.4C161.852 189.533 162.105 189.84 162.105 190.32ZM186 195.08C185.867 195.48 185.613 195.747 185.24 195.88C184.893 195.987 184.52 195.973 184.12 195.84C183.747 195.707 183.44 195.493 183.2 195.2C182.987 194.88 182.947 194.52 183.08 194.12C182.84 194.333 182.52 194.347 182.12 194.16C181.72 193.973 181.307 193.68 180.88 193.28C180.48 192.88 180.12 192.44 179.8 191.96C179.507 191.453 179.307 190.987 179.2 190.56C179.12 190.133 179.2 189.827 179.44 189.64C178.72 189.747 178.2 189.64 177.88 189.32C177.587 188.973 177.533 188.6 177.72 188.2C177.907 187.773 178.36 187.507 179.08 187.4C178.68 187.4 178.373 187.253 178.16 186.96C177.973 186.667 177.867 186.333 177.84 185.96C177.84 185.56 177.933 185.213 178.12 184.92C178.333 184.6 178.64 184.44 179.04 184.44C178.613 184.36 178.32 184.12 178.16 183.72C178.027 183.32 178 182.893 178.08 182.44C178.187 181.96 178.373 181.56 178.64 181.24C178.933 180.92 179.293 180.8 179.72 180.88C179.267 180.587 179.013 180.24 178.96 179.84C178.907 179.44 178.973 179.093 179.16 178.8C179.373 178.48 179.667 178.28 180.04 178.2C180.44 178.093 180.867 178.187 181.32 178.48C181.08 178.133 181.013 177.8 181.12 177.48C181.227 177.133 181.427 176.867 181.72 176.68C182.013 176.467 182.333 176.373 182.68 176.4C183.027 176.427 183.32 176.613 183.56 176.96C183.373 176.4 183.387 175.987 183.6 175.72C183.813 175.427 184.08 175.32 184.4 175.4C184.747 175.48 185.027 175.8 185.24 176.36C185.16 175.933 185.227 175.6 185.44 175.36C185.653 175.12 185.92 174.973 186.24 174.92C186.587 174.84 186.907 174.88 187.2 175.04C187.493 175.2 187.68 175.48 187.76 175.88C187.76 175.48 187.947 175.187 188.32 175C188.72 174.787 189.173 174.68 189.68 174.68C190.187 174.68 190.627 174.787 191 175C191.4 175.187 191.6 175.48 191.6 175.88C191.707 175.32 191.96 174.933 192.36 174.72C192.787 174.507 193.227 174.453 193.68 174.56C194.133 174.64 194.493 174.867 194.76 175.24C195.053 175.587 195.147 176.053 195.04 176.64C195.227 176.267 195.493 176.067 195.84 176.04C196.213 176.013 196.56 176.093 196.88 176.28C197.227 176.44 197.467 176.68 197.6 177C197.76 177.32 197.733 177.667 197.52 178.04C197.947 177.747 198.373 177.693 198.8 177.88C199.227 178.04 199.573 178.32 199.84 178.72C200.133 179.12 200.293 179.56 200.32 180.04C200.347 180.493 200.147 180.853 199.72 181.12C200.173 181.093 200.547 181.253 200.84 181.6C201.16 181.947 201.387 182.4 201.52 182.96C201.68 183.493 201.747 184.053 201.72 184.64C201.693 185.2 201.56 185.68 201.32 186.08C201.107 186.48 200.773 186.707 200.32 186.76C200.88 186.867 201.253 187.147 201.44 187.6C201.627 188.027 201.667 188.507 201.56 189.04C201.48 189.547 201.253 189.973 200.88 190.32C200.533 190.667 200.093 190.787 199.56 190.68C199.96 190.947 200.173 191.267 200.2 191.64C200.253 191.987 200.173 192.307 199.96 192.6C199.747 192.893 199.467 193.093 199.12 193.2C198.773 193.28 198.4 193.187 198 192.92C198.24 193.293 198.307 193.653 198.2 194C198.093 194.32 197.88 194.573 197.56 194.76C197.267 194.947 196.933 195.027 196.56 195C196.213 194.973 195.933 194.773 195.72 194.4C195.88 194.907 195.8 195.307 195.48 195.6C195.16 195.893 194.787 196.013 194.36 195.96C193.96 195.88 193.68 195.573 193.52 195.04C193.627 195.68 193.507 196.12 193.16 196.36C192.813 196.627 192.427 196.68 192 196.52C191.6 196.36 191.36 195.973 191.28 195.36C191.333 196.507 190.933 197.08 190.08 197.08C189.227 197.08 187.867 196.413 186 195.08ZM192.32 188.8C192.027 188.773 191.813 188.56 191.68 188.16C191.573 187.76 191.52 187.293 191.52 186.76C191.547 186.2 191.627 185.707 191.76 185.28C191.893 184.853 192.093 184.6 192.36 184.52C192.093 184.52 191.827 184.333 191.56 183.96C191.32 183.587 191.12 183.16 190.96 182.68C190.827 182.173 190.773 181.733 190.8 181.36C190.56 181.573 190.267 181.653 189.92 181.6C189.573 181.547 189.307 181.373 189.12 181.08C189.093 181.293 189.013 181.427 188.88 181.48C188.747 181.533 188.6 181.507 188.44 181.4C188.52 181.773 188.493 182.213 188.36 182.72C188.253 183.2 188.08 183.627 187.84 184C187.6 184.373 187.333 184.56 187.04 184.56C187.36 184.64 187.56 184.867 187.64 185.24C187.747 185.613 187.733 185.987 187.6 186.36C187.467 186.707 187.227 186.88 186.88 186.88C187.173 186.827 187.427 186.987 187.64 187.36C187.88 187.707 188.04 188.12 188.12 188.6C188.227 189.08 188.24 189.493 188.16 189.84C188.533 189.627 189.093 189.507 189.84 189.48C190.587 189.453 191.413 189.227 192.32 188.8ZM208.68 192.72C208.227 192.853 207.84 192.827 207.52 192.64C207.227 192.453 207.027 192.2 206.92 191.88C206.813 191.533 206.827 191.2 206.96 190.88C207.12 190.533 207.427 190.28 207.88 190.12C207.347 190.307 206.853 190.187 206.4 189.76C205.973 189.307 205.653 188.747 205.44 188.08C205.227 187.387 205.173 186.747 205.28 186.16C205.387 185.547 205.707 185.16 206.24 185C205.627 185.187 205.16 185.173 204.84 184.96C204.547 184.747 204.453 184.48 204.56 184.16C204.693 183.813 205.08 183.533 205.72 183.32C205.187 183.507 204.72 183.467 204.32 183.2C203.92 182.907 203.64 182.52 203.48 182.04C203.347 181.56 203.36 181.093 203.52 180.64C203.68 180.187 204.04 179.867 204.6 179.68C204.12 179.84 203.693 179.787 203.32 179.52C202.973 179.227 202.72 178.853 202.56 178.4C202.427 177.947 202.413 177.507 202.52 177.08C202.653 176.653 202.96 176.36 203.44 176.2C203.44 175.64 203.653 175.227 204.08 174.96C204.533 174.693 205.053 174.56 205.64 174.56C206.227 174.56 206.747 174.693 207.2 174.96C207.653 175.227 207.88 175.64 207.88 176.2C208.2 175.88 208.587 175.787 209.04 175.92C209.493 176.053 209.92 176.32 210.32 176.72C210.72 177.093 210.973 177.52 211.08 178C211.213 178.453 211.12 178.84 210.8 179.16C211.12 179.053 211.44 179.173 211.76 179.52C212.107 179.84 212.4 180.293 212.64 180.88C212.88 181.44 213.053 182 213.16 182.56C213.4 182.347 213.667 182.2 213.96 182.12C214.253 182.013 214.533 182.013 214.8 182.12C214.587 181.853 214.493 181.467 214.52 180.96C214.547 180.427 214.653 179.893 214.84 179.36C215.053 178.8 215.307 178.347 215.6 178C215.92 177.653 216.253 177.533 216.6 177.64C216.467 177.293 216.6 176.96 217 176.64C217.4 176.293 217.893 176.027 218.48 175.84C219.067 175.653 219.613 175.587 220.12 175.64C220.653 175.667 220.973 175.853 221.08 176.2C221.667 175.933 222.133 175.933 222.48 176.2C222.827 176.44 222.987 176.773 222.96 177.2C222.933 177.627 222.627 177.973 222.04 178.24C222.493 178.107 222.88 178.173 223.2 178.44C223.547 178.707 223.787 179.067 223.92 179.52C224.053 179.947 224.053 180.36 223.92 180.76C223.813 181.16 223.533 181.44 223.08 181.6C223.4 181.467 223.693 181.533 223.96 181.8C224.253 182.04 224.467 182.347 224.6 182.72C224.813 182.56 225.053 182.467 225.32 182.44C225.587 182.387 225.84 182.427 226.08 182.56C225.893 182.213 225.853 181.76 225.96 181.2C226.067 180.64 226.267 180.16 226.56 179.76C226.88 179.36 227.227 179.213 227.6 179.32C227.253 179.027 227.12 178.653 227.2 178.2C227.307 177.72 227.533 177.28 227.88 176.88C228.227 176.453 228.627 176.16 229.08 176C229.533 175.84 229.933 175.907 230.28 176.2C230.253 175.72 230.48 175.36 230.96 175.12C231.44 174.88 231.987 174.76 232.6 174.76C233.213 174.733 233.76 174.84 234.24 175.08C234.72 175.32 234.96 175.68 234.96 176.16C235.467 176.32 235.773 176.693 235.88 177.28C235.987 177.867 235.933 178.493 235.72 179.16C235.507 179.827 235.187 180.373 234.76 180.8C234.36 181.227 233.907 181.36 233.4 181.2C234.013 181.413 234.387 181.68 234.52 182C234.653 182.293 234.573 182.533 234.28 182.72C233.987 182.907 233.533 182.907 232.92 182.72C233.64 182.96 234.067 183.293 234.2 183.72C234.333 184.147 234.213 184.507 233.84 184.8C233.493 185.067 232.96 185.08 232.24 184.84C232.72 185 233.027 185.28 233.16 185.68C233.293 186.08 233.28 186.507 233.12 186.96C232.987 187.387 232.747 187.733 232.4 188C232.053 188.267 231.64 188.32 231.16 188.16C231.827 188.373 232.213 188.693 232.32 189.12C232.427 189.547 232.307 189.907 231.96 190.2C231.64 190.467 231.16 190.493 230.52 190.28C231 190.44 231.293 190.747 231.4 191.2C231.507 191.653 231.48 192.133 231.32 192.64C231.187 193.147 230.933 193.56 230.56 193.88C230.213 194.173 229.8 194.24 229.32 194.08C229.533 194.533 229.52 194.907 229.28 195.2C229.067 195.493 228.773 195.653 228.4 195.68C228.027 195.68 227.72 195.453 227.48 195C227.4 195.427 227.093 195.693 226.56 195.8C226.053 195.88 225.48 195.853 224.84 195.72C224.227 195.56 223.707 195.333 223.28 195.04C222.853 194.72 222.68 194.347 222.76 193.92C222.467 194.027 222.173 193.92 221.88 193.6C221.587 193.253 221.347 192.827 221.16 192.32C220.973 191.813 220.88 191.333 220.88 190.88C220.907 190.427 221.08 190.147 221.4 190.04C220.973 190.2 220.533 189.973 220.08 189.36C219.653 188.72 219.333 188.013 219.12 187.24C218.747 187.507 218.373 187.547 218 187.36C218.293 187.467 218.467 187.747 218.52 188.2C218.573 188.627 218.52 189.12 218.36 189.68C218.227 190.24 218.027 190.787 217.76 191.32C217.52 191.853 217.24 192.28 216.92 192.6C216.627 192.893 216.333 192.987 216.04 192.88C216.68 193.12 217.053 193.413 217.16 193.76C217.267 194.107 217.16 194.387 216.84 194.6C216.547 194.787 216.08 194.76 215.44 194.52C215.653 195.107 215.68 195.547 215.52 195.84C215.36 196.107 215.133 196.173 214.84 196.04C214.547 195.933 214.293 195.587 214.08 195C214.08 195.56 213.853 195.96 213.4 196.2C212.947 196.467 212.4 196.533 211.76 196.4C211.12 196.267 210.507 195.907 209.92 195.32C209.36 194.707 208.947 193.84 208.68 192.72ZM239.405 194.76C239.059 194.76 238.779 194.573 238.565 194.2C238.379 193.827 238.245 193.36 238.165 192.8C238.085 192.24 238.085 191.68 238.165 191.12C238.245 190.56 238.379 190.093 238.565 189.72C238.779 189.347 239.059 189.16 239.405 189.16C238.899 189.16 238.512 188.933 238.245 188.48C238.005 188.027 237.885 187.507 237.885 186.92C237.885 186.333 238.005 185.813 238.245 185.36C238.512 184.907 238.899 184.68 239.405 184.68C238.872 184.68 238.472 184.56 238.205 184.32C237.939 184.053 237.805 183.747 237.805 183.4C237.805 183.053 237.939 182.76 238.205 182.52C238.472 182.253 238.872 182.12 239.405 182.12C238.872 182.12 238.472 181.88 238.205 181.4C237.939 180.893 237.805 180.307 237.805 179.64C237.805 178.973 237.939 178.4 238.205 177.92C238.472 177.413 238.872 177.16 239.405 177.16C238.845 177.16 238.419 177.027 238.125 176.76C237.859 176.467 237.725 176.147 237.725 175.8C237.725 175.453 237.859 175.147 238.125 174.88C238.419 174.587 238.845 174.44 239.405 174.44C239.005 174.44 238.672 174.253 238.405 173.88C238.165 173.507 238.005 173.04 237.925 172.48C237.845 171.92 237.845 171.36 237.925 170.8C238.005 170.24 238.165 169.773 238.405 169.4C238.672 169.027 239.005 168.84 239.405 168.84C239.299 168.227 239.352 167.8 239.565 167.56C239.805 167.32 240.059 167.28 240.325 167.44C240.619 167.6 240.819 167.987 240.925 168.6C240.925 168.147 241.112 167.787 241.485 167.52C241.885 167.253 242.365 167.08 242.925 167C243.485 166.893 244.045 166.893 244.605 167C245.192 167.08 245.672 167.253 246.045 167.52C246.445 167.787 246.645 168.147 246.645 168.6C247.152 168.6 247.525 168.867 247.765 169.4C248.032 169.907 248.165 170.507 248.165 171.2C248.192 171.867 248.085 172.467 247.845 173C247.605 173.533 247.232 173.8 246.725 173.8C247.152 173.8 247.499 174 247.765 174.4C248.032 174.8 248.205 175.293 248.285 175.88C248.365 176.467 248.365 177.053 248.285 177.64C248.205 178.227 248.032 178.72 247.765 179.12C247.499 179.52 247.152 179.72 246.725 179.72C247.232 179.72 247.605 179.867 247.845 180.16C248.112 180.453 248.245 180.787 248.245 181.16C248.245 181.533 248.112 181.867 247.845 182.16C247.605 182.453 247.232 182.6 246.725 182.6C247.125 182.6 247.432 182.747 247.645 183.04C247.859 183.307 247.965 183.613 247.965 183.96C247.965 184.307 247.859 184.627 247.645 184.92C247.432 185.187 247.125 185.32 246.725 185.32C247.232 185.32 247.605 185.6 247.845 186.16C248.112 186.693 248.245 187.32 248.245 188.04C248.245 188.76 248.112 189.4 247.845 189.96C247.605 190.493 247.232 190.76 246.725 190.76C247.259 190.76 247.645 190.92 247.885 191.24C248.152 191.56 248.285 191.933 248.285 192.36C248.285 192.787 248.152 193.16 247.885 193.48C247.645 193.8 247.259 193.96 246.725 193.96C247.072 194.44 247.165 194.853 247.005 195.2C246.872 195.547 246.619 195.72 246.245 195.72C245.899 195.72 245.552 195.48 245.205 195C245.205 195.773 244.992 196.28 244.565 196.52C244.139 196.787 243.712 196.787 243.285 196.52C242.885 196.28 242.685 195.773 242.685 195C242.685 195.427 242.512 195.747 242.165 195.96C241.845 196.173 241.472 196.267 241.045 196.24C240.645 196.24 240.272 196.12 239.925 195.88C239.605 195.613 239.432 195.24 239.405 194.76Z" fill="#9C9A9A"/>
<path d="M335.919 23.0516C335.919 23.3753 335.764 23.7496 335.343 24.1794C334.92 24.6107 334.266 25.0602 333.362 25.5181C331.557 26.4331 328.862 27.3298 325.349 28.1912C318.33 29.9121 308.153 31.4663 295.552 32.7731C270.355 35.3861 235.535 37.0032 197.065 37.0032C158.594 37.0032 123.774 35.3861 98.5774 32.7731C85.9761 31.4663 75.7986 29.9121 68.7799 28.1912C65.2666 27.3298 62.5723 26.4331 60.7669 25.5181C59.8632 25.0602 59.2087 24.6107 58.7864 24.1794C58.3655 23.7496 58.2097 23.3753 58.2097 23.0516C58.2097 22.7279 58.3655 22.3536 58.7864 21.9239C59.2087 21.4926 59.8632 21.0431 60.7669 20.5851C62.5723 19.6701 65.2666 18.7734 68.7799 17.912C75.7986 16.1912 85.9761 14.6369 98.5774 13.3301C123.774 10.7172 158.594 9.10001 197.065 9.10001C235.535 9.10001 270.355 10.7172 295.552 13.3301C308.153 14.6369 318.33 16.1912 325.349 17.912C328.862 18.7734 331.557 19.6701 333.362 20.5851C334.266 21.0431 334.92 21.4926 335.343 21.9239C335.764 22.3536 335.919 22.7279 335.919 23.0516Z" stroke="black"/>
<path d="M337.984 41.6323C337.984 42.6443 337.201 43.7663 335.36 44.9571C333.546 46.1306 330.838 47.2812 327.302 48.3875C320.239 50.5978 309.992 52.5952 297.3 54.2751C271.923 57.6338 236.849 59.7129 198.097 59.7129C159.345 59.7129 124.271 57.6338 98.8937 54.2751C86.2015 52.5952 75.9548 50.5978 68.8913 48.3875C65.356 47.2812 62.6477 46.1306 60.8334 44.9571C58.9924 43.7663 58.2097 42.6443 58.2097 41.6323C58.2097 40.6202 58.9924 39.4982 60.8334 38.3075C62.6477 37.134 65.356 35.9833 68.8913 34.877C75.9548 32.6667 86.2015 30.6693 98.8937 28.9894C124.271 25.6307 159.345 23.5516 198.097 23.5516C236.849 23.5516 271.923 25.6307 297.3 28.9894C309.992 30.6693 320.239 32.6667 327.302 34.877C330.838 35.9833 333.546 37.134 335.36 38.3075C337.201 39.4982 337.984 40.6202 337.984 41.6323Z" stroke="black"/>
<path d="M257.468 236.729C257.468 236.826 257.428 236.962 257.273 237.143C257.116 237.327 256.858 237.533 256.48 237.753C255.722 238.192 254.573 238.632 253.047 239.06C250.002 239.914 245.572 240.689 240.071 241.342C229.074 242.647 213.869 243.455 197.065 243.455C180.26 243.455 165.055 242.647 154.058 241.342C148.557 240.689 144.127 239.914 141.082 239.06C139.556 238.632 138.407 238.192 137.649 237.753C137.271 237.533 137.013 237.327 136.856 237.143C136.701 236.962 136.661 236.826 136.661 236.729C136.661 236.632 136.701 236.496 136.856 236.315C137.013 236.131 137.271 235.925 137.649 235.705C138.407 235.266 139.556 234.826 141.082 234.398C144.127 233.544 148.557 232.769 154.058 232.116C165.055 230.811 180.26 230.003 197.065 230.003C213.869 230.003 229.074 230.811 240.071 232.116C245.572 232.769 250.002 233.544 253.047 234.398C254.573 234.826 255.722 235.266 256.48 235.705C256.858 235.925 257.116 236.131 257.273 236.315C257.428 236.496 257.468 236.632 257.468 236.729Z" stroke="black"/>
<path d="M59.0103 41.6323C29.0844 100.436 3.03134 221.988 138.226 237.761" stroke="black"/>
<path d="M338.69 41.6323C362.041 95.6538 378.173 210.097 255.903 235.697" stroke="black"/>
<path d="M335.387 23.0516C341.581 24.7721 350.871 30.8968 338.484 41.6323" stroke="black"/>
<path d="M58.7419 23.0516C53.2366 26.4925 45.529 35.0258 58.7419 41.6323" stroke="black"/>
<circle cx="85" cy="129" r="10" fill="#D9D9D9"/>
<circle cx="67" cy="98" r="8" fill="#D9D9D9"/>
<circle cx="78.5" cy="67.5" r="6.5" fill="#D9D9D9"/>
</svg>
